<svg xmlns="http://www.w3.org/2000/svg" viewBox="0 0 2784 2064"><defs><style>.cls-1{fill:#f74700;}.cls-2{fill:#b53a25;}.cls-3{fill:#677662;}</style></defs><g id="Layer_1" data-name="Layer 1"><path class="cls-1" d="M2454.63,927.81,2454,903.9l-72.05-.46c4.51,81.06,4.51,110.33,4.51,247.22,27,11.71,56.73,23.87,68.44,32.42l56.3-62.59c-15.77-1.35-42.34-10.35-57.2-18.91,0-80.61,0-105.82.9-133.29Z"/><path class="cls-2" d="M1451.58,1101.58,1384,1150.66c27,11.71,54.49,23.87,66.19,32.42l56.29-62.59C1490.76,1119.14,1466.44,1110.14,1451.58,1101.58Z"/><path class="cls-1" d="M933.23,955.68,978,894.45l-.65-.46L858,947.13c4.5,53.13,4.5,98.61,4.5,189.58,30.17,9,78.8,27.91,118,46.37l52.69-62.59c-31.07-4.5-80.16-15.31-103.12-28.82,0-57.64,0-89.61,3.14-136Z"/><path class="cls-1" d="M698,1121.08l-8.42-2.84h0c-24.76-6.3-49.08-14.41-69.34-26.57,0-57.64,1-89.72,4.15-136.1l.17,0L668.92,895l-1.38-1L548.2,947.13c4.5,53.13,4.5,98.61,4.5,189.58,25.22,6.3,60.79,27.91,93.66,46.37,0,0,40.54-48.18,50.44-59.89Z"/><path class="cls-1" d="M1783.47,1130l-75.2-10.36c-27.47-6.75-55.84-14.86-77.9-27.92,0-57.19,0-89.16,3.15-134.64l.31.05L1686.66,894l-128.34,53.14c4.5,53.13,4.5,98.61,4.5,189.58,25.22,6.3,73.41,32.87,92.32,46.37L1783.47,1130"/><path class="cls-1" d="M2315.18,1031.3l-55.24,0H2205c.44-25.67,1.34-48.18,3.14-75.65l.33.1L2252.34,894l-.05,0L2133,947.13c4.5,53.13,4.5,98.61,4.5,189.58,30.16,9,78.8,27.91,118,46.37l52.69-62.59c-31.07-4.5-80.16-15.31-103.12-28.82v-40.53l57.18,22.52c19.2-16.51,29.11-25.51,52.95-42.33"/><path class="cls-2" d="M337,903.9l111.23,13.5,15.31-76.55L328.81,827.38,337,904.31C337,904.17,337,904,337,903.9Z"/><path class="cls-2" d="M478.38,1212.81c-4.5-81.06-4.5-139.15-4.5-230.11-25.23-6.3-77.91-32.87-96.82-46.39l-42.54,47.35V1003c23.79,7.18,48,15.72,67.31,28.74,0,72,0,109-4.51,190Z"/><path class="cls-2" d="M2386.26,1151.12c26.87,11.64,57,23.47,68.68,32l56.29-62.59c-14.89-1.28-41.28-10.91-56.47-19Z"/><path class="cls-2" d="M1539.38,1553l-15.1-69.31-78.2,13.33c-15.11-39.1-21.77-61.32-31.55-100.42,22.22-13.77,70.21-44.43,90.64-61.31,36,8.88,72.43,19.55,101.75,19.55l-18.66,72.42c-28.43-6.22-69.31-21.77-96-33.32l25.32,74.64,68-20.88c12,36,20,69.31,28,112-28.44,19.11-54.65,45.76-70.65,60-47.1-8.88-72.87-13.77-122.19-13.77,7.11-31.55,20-56.87,32-76Z"/><path class="cls-2" d="M1751.32,1344.15h39.1l-6.22,44H1750c-.89,37.33-.89,78.64-.89,151.07,14.67,8.44,38.66,17.33,54.21,18.66l-55.54,61.76c-11.55-8.44-38.65-20.44-65.31-32,0-82.64,0-145.29-.89-199.5h-21.33c8-19.55,12-24.44,20-44-.44-18.21-1.33-36-2.21-53.32l75.53,8.89C1752.65,1316.16,1751.76,1330.38,1751.32,1344.15Z"/><path class="cls-1" d="M1682.45,1587.64c0-82.64,0-145.29-.89-199.5h-21.33c8-19.55,12-24.44,20-44-.44-18.21-1.33-36-2.21-53.32l75.53,8.89c-.89,16.44-1.78,30.66-2.22,44.43h39.1l-6.22,44H1750c-.89,37.33-.89,78.64-.89,151.07"/><path class="cls-1" d="M1456.18,1495.28,1526,1466l-8.41,2.58-25.32-74.64,10.22-56.52c-21.66,17.22-66.66,46-88,59.18,9.78,39.1,16.44,61.32,31.55,100.42Z"/><path class="cls-1" d="M1539.39,1553l-86.64-23.1c-12,19.11-24.89,44.43-32,76,49.32,0,75.09,4.89,122.19,13.77,15.78-14,41.52-40.16,69.52-59.2Z"/><path class="cls-1" d="M1364.66,1365.75l-.91,104.92c-24.31,17.12-34.21,26.13-53.58,42.79L1253,1490.94v40.53c23,13.51,72,24.32,103.12,28.82l-52.69,62.59c-39.18-18.46-87.82-37.37-118-46.38,0-91,0-136.45-4.5-189.58l119.33-53.13C1319.18,1347.29,1336.74,1352.7,1364.66,1365.75Zm-56.74,105.37v-54.93c-16.21-8.1-31.07-14-51.79-20.71-1.8,27.46-2.7,50-3.14,75.64Z"/><path class="cls-2" d="M1259,1395.48l-.07.94c19.22,6.36,33.5,12,49,19.77v54.93h55.2l.63-.45.91-104.92c-26.64-12.45-43.85-18-61.8-30.17Z"/><path class="cls-1" d="M337,904.31l-8.15-76.93-.39,0c-20.71,17.12-45.92,36.92-68.44,50.88,4.5,81.06,2.7,210.75-1.8,295.86h80.6c-2.14-40.65-3.69-87.5-4.26-134.31V957.93Z"/><path class="cls-1" d="M1175.28,951.29c1.83-52,2-91.53,3.84-123.95l-76.55,9c4.51,81,3.61,200.83,3.61,337.73h68.44V1052.5Z"/><path class="cls-2" d="M1303,1043.49c-15.31-6.76-32.43-14.86-46.38-22.06l36.92-14V926.86c-34.22-11.26-45.93-18-70.7-32.87,0,0-31.37,34.58-47.17,52.36l-.11,12c21.62,4,31.07,5.86,50.44,11.25V993.5c0,4.49-30.9,29.13-51.16,47.13l-.1,10.68,1,.79c26,9.44,45.8,17.52,59.72,23.81,0,22.52-.45,80.6-.45,99.52l68,8.1C1300.71,1148.87,1300.71,1083.12,1303,1043.49Z"/><path class="cls-2" d="M933.23,955.68c28.38,9.45,46.39,16.66,70.71,31.52L1041.76,926c-27.6-12.91-45.07-18.35-63.73-31.52Z"/><path class="cls-2" d="M760.3,1101.58c-.74-80.52-.46-99.52-.46-161.21-24.65-6.17-71.16-31.66-90.91-45.42l-44.42,60.73.07.22c27.67,5,45.07,12.53,67.72,22.3,0,41-1.11,77.44-2.71,140l8.42,2.84-1,2.35c17.54,28.71,41.75,51.57,53,59.65l56.29-62.59C790.92,1118.24,775.16,1110.14,760.3,1101.58Z"/><path class="cls-1" d="M1384,1150.66c0-83.75,0-147.25-.9-202.19h-21.62c8.11-19.81,12.16-24.76,20.27-44.57-.45-18.47-1.36-36.48-2.26-54l76.56,9c-.9,16.66-1.81,31.07-2.26,45h39.63l-6.3,44.57h-34.68c-.9,37.83-.9,79.71-.9,153.11Z"/><path class="cls-2" d="M1633.62,957.34l4.4.53c26,4.88,52.54,11.38,73.4,20.33,0,42.32,0,75.64-3.15,141.39l75.2,10.36c-4.5-81.06-4.5-127.89-4.5-189.58-25.21-6.31-73.4-32.88-92.31-46.38Z"/><path class="cls-1" d="M1921.69,948c2.62-57.89,1.71-104.78,2.75-134.15l-71.14,22.52c1.34,81,.45,238.66.45,300.36,25.21,6.3,73.4,32.87,92.31,46.37L2065.39,1130v-.14l-75.45-8.29v-.17c-28.23-4.95-45.75-12.6-68.65-22.48,0-22,0-80.15.45-140.49Z"/><path class="cls-2" d="M2065.38,1129.81c-4.49-53.07-4.49-98.56-4.49-189.44-25.22-6.31-60.8-27.92-93.67-46.38,0,0-30.79,36.46-45.31,53.83l0,10.6c25.61,6.3,50.34,14.84,71.46,27,0,57.11-1,90.14-3.41,136.12Z"/><path class="cls-2" d="M2208.26,956.1l2.88.91c19.23,6.36,32.93,11.24,48.38,19v54.94l55.62.42c.22-.16,1-.79,1.18-.94l.36-104.43c-26.64-12.46-46.2-20-64.15-32.21Z"/><path class="cls-2" d="M2481.51,894.89l-26.12,32.42-.63.71v39.91l3.2,1.65a407.86,407.86,0,0,1,40.66,19.87l54-61.69C2531.49,917.4,2503.58,905.69,2481.51,894.89Z"/><path class="cls-2" d="M1085.94,1654.87l.63-.34c-.88-90.42,0-158.4,2.66-255h23.94l19.06-34.33h-41.67l.44-41.84c2.82-.94,1.67-16.33,1.67-16.33l65.6,32.64,35.35-58s-78.72-48.55-92.85-57.48c-11.53,8.43-53.65,31.7-80.25,43.23,1.33,22.61,2.67,72.94,3.55,97.76h-.44l-19.06,34.33h21.27c.26,7.74.49,25.16.72,32.36h-8.9c.9,54.81.9,189.5.9,273.05,27,11.68,54.36,23.81,66,32.34l56.16-62.44c-15.72-1.35-40-10.33-54.81-18.86Z"/><path class="cls-1" d="M1090.56,1365.17l3.14-36.13,7.07-104.86c-8.16,6-39.18,25-57.23,33.12v-.3l-29.47,11.56c.89,17.52,1.79,61.89,2.24,80.31-.28.28-.3,6.91-.18,16.3H985L966,1409.5h51.11c.33,12.71.6,22.36.6,22.36.9,54.81.9,189.5.9,273.05l67.38-49v-1.08l.63-.34c-.88-90.42,0-148.4,2.66-245h39.92l19.06-44.33Z"/><path class="cls-3" d="M2014.9,541.81c-1.3-.62-2.6-1.22-3.88-1.8h89.6a8.54,8.54,0,1,0,0-17.08h-88.47c.91-.42,1.83-.84,2.75-1.28,35.2-16.78,81.76-52.8,103.63-129.11a8.55,8.55,0,0,0-16.43-4.71c-16.07,56.07-47.65,95.79-93.88,118.07-34.69,16.72-65.18,16.89-65.61,16.89h-12.24a8.58,8.58,0,0,0-1.35.14h-53.57a12.78,12.78,0,0,1,5.46-6.86c7.64-4.33,16-5.26,24.42-5.9,25.08-1.9,45.79-12,61.32-32.13,7.15-9.27,10.92-19.82,12.23-31.34.5-4.41,1-8.83,1.24-13.25a25.61,25.61,0,0,0-.7-5c-15.94,5.76-32.11,8.21-48,12-6.16,1.49-12.42,3.17-18.11,5.88-23.85,11.36-39.1,29.88-44.87,55.87-.51,2.29-.46,4.7-1.06,7a42.39,42.39,0,0,0,.35,13.77h-68.25a98.16,98.16,0,0,0,20.62-22.07c6.82-9.74,13-20.34,19-30.6,9.18-15.67,17.85-30.47,28.48-42.48,17.12-19.35,39.38-30.17,60.93-29.72h51.26a29.87,29.87,0,1,0,.47-17.09h-51.45c-26.62-.57-53.58,12.4-74,35.48-11.73,13.26-21.24,29.49-30.43,45.18-5.83,10-11.87,20.25-18.29,29.43-13.41,19.17-28.76,28.63-52.15,31.87h-28.17a29.87,29.87,0,1,0,.61,17.64h23.78l.41-.05c.39,0,.75-.09,1.14-.13,24.64,2.94,40.55,12.37,54.38,32.13,6.42,9.18,12.46,19.48,18.29,29.44,9.19,15.69,18.7,31.91,30.43,45.17,20,22.63,46.33,35.5,72.41,35.5l1.59,0h51.46a29.9,29.9,0,1,0-.47-17.09h-51.26c-21.63.43-43.81-10.37-60.93-29.71-10.63-12-19.3-26.82-28.48-42.49-6-10.25-12.22-20.85-19-30.6A97.74,97.74,0,0,0,1798.7,540h68.79a44.37,44.37,0,0,0-.07,12.25c.6,2.27.55,4.68,1.06,7,5.77,26,21,44.5,44.87,55.87a92.12,92.12,0,0,0,18.11,5.87c15.85,3.82,32,6.26,48,12a25.41,25.41,0,0,0,.7-5c-.28-4.43-.74-8.84-1.24-13.25-1.31-11.52-5.08-22.07-12.23-31.34-15.53-20.11-36.24-30.23-61.32-32.13-8.43-.64-16.78-1.57-24.42-5.9a12.09,12.09,0,0,1-4.79-5.34h51a8.49,8.49,0,0,0,3.27.66h12.27c.4,0,30.89.17,65.58,16.89,46.23,22.27,77.81,62,93.88,118.06a8.56,8.56,0,0,0,8.21,6.19,8.35,8.35,0,0,0,2.36-.33,8.54,8.54,0,0,0,5.86-10.57C2096.66,594.61,2050.1,558.59,2014.9,541.81Zm-6.22-164.29a12.8,12.8,0,1,1-12.79,12.8A12.81,12.81,0,0,1,2008.68,377.52Zm0,283a12.8,12.8,0,1,1-12.79,12.8A12.81,12.81,0,0,1,2008.68,660.47Zm-311.06-115a12.8,12.8,0,1,1,12.79-12.79A12.81,12.81,0,0,1,1697.62,545.52Z"/><path class="cls-3" d="M692.31,670.91a8.54,8.54,0,0,0,5.86,10.57,8.35,8.35,0,0,0,2.36.33,8.56,8.56,0,0,0,8.21-6.19c16.07-56.06,47.65-95.79,93.88-118.06,34.69-16.72,65.18-16.89,65.58-16.89h12.27a8.49,8.49,0,0,0,3.27-.66h51a12.09,12.09,0,0,1-4.79,5.34c-7.64,4.33-16,5.26-24.42,5.9-25.08,1.9-45.79,12-61.32,32.13C837,592.65,833.27,603.2,832,614.72c-.5,4.41-1,8.82-1.24,13.25a26.18,26.18,0,0,0,.7,5c15.94-5.76,32.11-8.2,48-12a92.12,92.12,0,0,0,18.11-5.87c23.85-11.37,39.1-29.88,44.87-55.87.51-2.29.46-4.7,1.06-7a44.82,44.82,0,0,0-.06-12.25h68.78a97.74,97.74,0,0,0-21.44,22.71c-6.82,9.75-13,20.35-19,30.6-9.18,15.67-17.85,30.47-28.48,42.49-17.12,19.34-39.29,30.14-60.93,29.71H831a29.87,29.87,0,1,0-.47,17.09H882l1.59,0c26.08,0,52.39-12.87,72.41-35.5,11.73-13.26,21.24-29.48,30.43-45.17,5.83-10,11.87-20.26,18.29-29.44,13.83-19.76,29.74-29.19,54.38-32.13.39,0,.76.1,1.14.13l.41.05h23.79a29.88,29.88,0,1,0,.6-17.64h-28.17c-23.39-3.24-38.74-12.7-52.15-31.87-6.42-9.18-12.45-19.47-18.29-29.43-9.19-15.69-18.7-31.92-30.43-45.18-20.43-23.08-47.39-36.05-74-35.48H830.52a29.9,29.9,0,1,0,.47,17.09h51.26c21.55-.45,43.81,10.37,60.93,29.72,10.63,12,19.3,26.81,28.49,42.48,6,10.26,12.21,20.86,19,30.6a98.16,98.16,0,0,0,20.62,22.07H943.07a42.39,42.39,0,0,0,.35-13.77c-.6-2.27-.55-4.68-1.06-7-5.77-26-21-44.51-44.87-55.87-5.69-2.71-12-4.39-18.11-5.88-15.85-3.81-32-6.26-48-12a26.38,26.38,0,0,0-.7,5c.28,4.42.74,8.84,1.24,13.25,1.31,11.52,5.08,22.07,12.23,31.34,15.53,20.11,36.24,30.23,61.32,32.13,8.43.64,16.78,1.57,24.42,5.9a12.78,12.78,0,0,1,5.46,6.86H881.82a8.46,8.46,0,0,0-1.35-.14H868.23c-.43,0-30.92-.17-65.61-16.89-46.23-22.28-77.81-62-93.88-118.07a8.55,8.55,0,1,0-16.43,4.71c21.87,76.31,68.43,112.33,103.63,129.11.92.44,1.84.86,2.75,1.28H710.22a8.54,8.54,0,1,0,0,17.08h89.6c-1.28.58-2.58,1.18-3.88,1.8C760.74,558.59,714.18,594.61,692.31,670.91ZM815,390.32a12.8,12.8,0,1,1-12.79-12.8A12.81,12.81,0,0,1,815,390.32Zm0,283a12.8,12.8,0,1,1-12.79-12.8A12.81,12.81,0,0,1,815,673.27Zm285.48-140.54a12.8,12.8,0,1,1,12.79,12.79A12.81,12.81,0,0,1,1100.43,532.73Z"/><path class="cls-1" d="M2164.21,689.77a15.19,15.19,0,0,1-7.59-13.15,15.18,15.18,0,0,0-22.76-13.16h0a15.23,15.23,0,0,1-15.19,0h0a15.18,15.18,0,0,0-22.78,13.13,15.17,15.17,0,0,1-7.59,13.15h0a15.17,15.17,0,0,0,0,26.29,15.19,15.19,0,0,1,7.59,13.15h0a15.18,15.18,0,0,0,22.76,13.16,15.21,15.21,0,0,1,15.18,0,15.18,15.18,0,0,0,22.78-13.13,15.2,15.2,0,0,1,7.6-13.15A15.18,15.18,0,0,0,2164.21,689.77Zm-18.56,19.86a7.78,7.78,0,0,0-3.89,6.72,7.76,7.76,0,0,1-11.65,6.72,7.74,7.74,0,0,0-7.76,0,7.77,7.77,0,0,1-11.65-6.73,7.77,7.77,0,0,0-3.88-6.73,7.77,7.77,0,0,1,0-13.45,7.77,7.77,0,0,0,3.88-6.72,7.77,7.77,0,0,1,11.66-6.72,7.74,7.74,0,0,0,7.76,0,7.77,7.77,0,0,1,11.65,6.73h0a7.77,7.77,0,0,0,3.88,6.73A7.77,7.77,0,0,1,2145.65,709.63Z"/><circle class="cls-1" cx="2126.24" cy="702.9" r="12.13"/><path class="cls-1" d="M2267.74,505.21h0a31.21,31.21,0,0,1-15.59-27c0-24-26-39.07-46.81-27.06h0a31.23,31.23,0,0,1-31.22,0h0a31.21,31.21,0,0,0-46.84,27h0a31.23,31.23,0,0,1-15.62,27h0a31.21,31.21,0,0,0,0,54.07h0a31.21,31.21,0,0,1,15.59,27h0A31.22,31.22,0,0,0,2174,613.3a31.21,31.21,0,0,1,31.22,0h0a31.22,31.22,0,0,0,46.84-27h0a31.22,31.22,0,0,1,15.62-27h0A31.21,31.21,0,0,0,2267.74,505.21ZM2238.05,549a19.32,19.32,0,0,0-9.68,16.75h0a19.36,19.36,0,0,1-29,16.74,19.36,19.36,0,0,0-19.35,0,19.35,19.35,0,0,1-29-16.77,19.35,19.35,0,0,0-9.67-16.77h0a19.35,19.35,0,0,1,0-33.51,19.33,19.33,0,0,0,9.68-16.75,19.35,19.35,0,0,1,29-16.74,19.36,19.36,0,0,0,19.35,0,19.34,19.34,0,0,1,29,16.77h0a19.35,19.35,0,0,0,9.67,16.76A19.36,19.36,0,0,1,2238.05,549Z"/><path class="cls-1" d="M2189.68,502.2a30,30,0,1,0,30,30A30,30,0,0,0,2189.68,502.2Zm0,41.85a11.85,11.85,0,1,1,11.85-11.85A11.85,11.85,0,0,1,2189.68,544.05Z"/><path class="cls-1" d="M2164.21,349.38a15.18,15.18,0,0,1-7.59-13.15,15.18,15.18,0,0,0-22.76-13.16h0a15.18,15.18,0,0,1-15.19,0h0a15.18,15.18,0,0,0-22.78,13.14,15.16,15.16,0,0,1-7.59,13.14h0a15.18,15.18,0,0,0,0,26.3,15.17,15.17,0,0,1,7.59,13.15h0A15.18,15.18,0,0,0,2118.63,402a15.16,15.16,0,0,1,15.18,0,15.18,15.18,0,0,0,22.78-13.14,15.2,15.2,0,0,1,7.6-13.14A15.19,15.19,0,0,0,2164.21,349.38Zm-18.56,19.86a7.78,7.78,0,0,0-3.89,6.73,7.76,7.76,0,0,1-11.65,6.72,7.77,7.77,0,0,0-7.76,0A7.77,7.77,0,0,1,2110.7,376a7.79,7.79,0,0,0-3.88-6.73,7.77,7.77,0,0,1,0-13.45,7.76,7.76,0,0,0,3.88-6.72,7.77,7.77,0,0,1,11.66-6.72,7.74,7.74,0,0,0,7.76,0,7.77,7.77,0,0,1,11.65,6.74h0a7.76,7.76,0,0,0,3.88,6.72A7.77,7.77,0,0,1,2145.65,369.24Z"/><circle class="cls-1" cx="2126.24" cy="362.51" r="12.13"/><path class="cls-1" d="M646.65,716.06a15.2,15.2,0,0,1,7.6,13.15A15.18,15.18,0,0,0,677,742.34a15.21,15.21,0,0,1,15.18,0A15.18,15.18,0,0,0,715,729.17h0A15.19,15.19,0,0,1,722.56,716a15.17,15.17,0,0,0,0-26.29h0A15.19,15.19,0,0,1,715,676.58a15.18,15.18,0,0,0-22.78-13.13h0a15.23,15.23,0,0,1-15.19,0h0a15.18,15.18,0,0,0-22.76,13.16,15.19,15.19,0,0,1-7.59,13.15A15.18,15.18,0,0,0,646.65,716.06Zm18.53-19.88a7.75,7.75,0,0,0,3.88-6.73h0a7.77,7.77,0,0,1,11.65-6.73,7.74,7.74,0,0,0,7.76,0,7.77,7.77,0,0,1,11.66,6.72,7.77,7.77,0,0,0,3.88,6.72,7.76,7.76,0,0,1,0,13.45,7.77,7.77,0,0,0-3.88,6.73,7.76,7.76,0,0,1-11.64,6.73,7.76,7.76,0,0,0-7.77,0,7.76,7.76,0,0,1-11.65-6.72,7.78,7.78,0,0,0-3.89-6.72A7.77,7.77,0,0,1,665.18,696.18Z"/><circle class="cls-1" cx="684.6" cy="702.9" r="12.13"/><path class="cls-1" d="M543.13,559.28h0a31.22,31.22,0,0,1,15.62,27h0a31.22,31.22,0,0,0,46.84,27h0a31.21,31.21,0,0,1,31.22,0,31.22,31.22,0,0,0,46.81-27.06h0a31.21,31.21,0,0,1,15.59-27h0a31.22,31.22,0,0,0,0-54.07h0a31.23,31.23,0,0,1-15.62-27h0a31.21,31.21,0,0,0-46.84-27h0a31.23,31.23,0,0,1-31.22,0h0c-20.81-12-46.82,3-46.81,27.06a31.21,31.21,0,0,1-15.59,27h0A31.21,31.21,0,0,0,543.13,559.28Zm29.64-43.81a19.35,19.35,0,0,0,9.67-16.76h0a19.34,19.34,0,0,1,29-16.77,19.36,19.36,0,0,0,19.35,0,19.35,19.35,0,0,1,29,16.74,19.33,19.33,0,0,0,9.68,16.75,19.35,19.35,0,0,1,0,33.51h0a19.35,19.35,0,0,0-9.67,16.77,19.35,19.35,0,0,1-29,16.77,19.36,19.36,0,0,0-19.35,0,19.35,19.35,0,0,1-29-16.74h0A19.35,19.35,0,0,0,572.79,549,19.36,19.36,0,0,1,572.77,515.47Z"/><path class="cls-1" d="M591.15,532.2a30,30,0,1,0,30-30A30,30,0,0,0,591.15,532.2Zm18.16,0a11.85,11.85,0,1,1,11.85,11.85A11.84,11.84,0,0,1,609.31,532.2Z"/><path class="cls-1" d="M646.65,375.68a15.2,15.2,0,0,1,7.6,13.14A15.18,15.18,0,0,0,677,402a15.16,15.16,0,0,1,15.18,0A15.18,15.18,0,0,0,715,388.79h0a15.17,15.17,0,0,1,7.59-13.15,15.18,15.18,0,0,0,0-26.3h0A15.19,15.19,0,0,1,715,336.2a15.18,15.18,0,0,0-22.78-13.14h0a15.18,15.18,0,0,1-15.19,0h0a15.18,15.18,0,0,0-22.76,13.16,15.18,15.18,0,0,1-7.59,13.15A15.19,15.19,0,0,0,646.65,375.68Zm18.53-19.89a7.74,7.74,0,0,0,3.88-6.72h0a7.77,7.77,0,0,1,11.65-6.74,7.74,7.74,0,0,0,7.76,0,7.77,7.77,0,0,1,11.66,6.72,7.76,7.76,0,0,0,3.88,6.72,7.76,7.76,0,0,1,0,13.45,7.79,7.79,0,0,0-3.88,6.73,7.76,7.76,0,0,1-11.64,6.73,7.78,7.78,0,0,0-7.77,0A7.76,7.76,0,0,1,669.08,376a7.78,7.78,0,0,0-3.89-6.73A7.77,7.77,0,0,1,665.18,355.79Z"/><circle class="cls-1" cx="684.6" cy="362.51" r="12.13"/><path class="cls-3" d="M1263.55,571.42c-3.07.28-6.16.42-9.16.42h-20.23l15.14-17c5.2-5.77,9.53-10.78,12.87-14.88a90.91,90.91,0,0,0,8-11.25,37.27,37.27,0,0,0,4.09-9.62,38.37,38.37,0,0,0,1.08-9.17,34.07,34.07,0,0,0-2.46-13.66,24,24,0,0,0-7-9.33,27.19,27.19,0,0,0-10.23-5.05c-7-1.82-15-2-24.08-.18a45.19,45.19,0,0,0-11.95,4l-1.26.65-3.95,16.39h6.13l.77-.51a26,26,0,0,1,4.52-2.35,46.11,46.11,0,0,1,5.71-1.93,46.68,46.68,0,0,1,6.06-1.19,42.72,42.72,0,0,1,5.56-.4c6.24,0,10.78,1.31,13.48,3.89a13,13,0,0,1,4,9.91,19,19,0,0,1-.86,5.49,29.45,29.45,0,0,1-3.28,6.7,100.15,100.15,0,0,1-7,9.49c-3,3.7-6.83,8.18-11.42,13.32l-26.45,30.11v3l2.75,9.46h59.39l2.45-13.46,0-6.38-4.14,1.51A34.36,34.36,0,0,1,1263.55,571.42Z"/><path class="cls-3" d="M1388.56,497.43a34.14,34.14,0,0,0-11.23-12.23c-4.7-3.06-10.49-4.61-17.22-4.61s-12.52,1.55-17.22,4.61a33.52,33.52,0,0,0-11.17,12.25,57.4,57.4,0,0,0-5.86,17.24,115.31,115.31,0,0,0,0,40.14,57.4,57.4,0,0,0,5.86,17.24,33.45,33.45,0,0,0,11.17,12.25c4.69,3.06,10.49,4.61,17.22,4.61s12.53-1.55,17.23-4.61a34.24,34.24,0,0,0,11.23-12.23,56.49,56.49,0,0,0,5.94-17.26,116,116,0,0,0,0-40.14A56.23,56.23,0,0,0,1388.56,497.43Zm-7.13,37.33a100.83,100.83,0,0,1-1,13.42,45,45,0,0,1-3.51,12.55,25.15,25.15,0,0,1-6.69,9c-2.63,2.19-6,3.25-10.16,3.25s-7.64-1.06-10.21-3.24a24.64,24.64,0,0,1-6.55-9,46.47,46.47,0,0,1-3.46-12.58,94.28,94.28,0,0,1,0-26.84,46.47,46.47,0,0,1,3.46-12.58,24.64,24.64,0,0,1,6.55-9c2.57-2.18,5.91-3.24,10.21-3.24s7.53,1.06,10.15,3.25a25.06,25.06,0,0,1,6.7,9,45,45,0,0,1,3.51,12.55A100.83,100.83,0,0,1,1381.43,534.76Z"/><path class="cls-3" d="M1493.31,571.42c-3.08.28-6.16.42-9.17.42h-20.22l15.13-17c5.21-5.77,9.54-10.78,12.88-14.88a90.91,90.91,0,0,0,8-11.25,37.27,37.27,0,0,0,4.09-9.62,38.89,38.89,0,0,0,1.08-9.17,34.24,34.24,0,0,0-2.46-13.66,24.14,24.14,0,0,0-7-9.33,27.26,27.26,0,0,0-10.23-5.05c-7-1.82-15-2-24.08-.18a45.26,45.26,0,0,0-12,4l-1.26.65-3.94,16.39h6.13l.77-.51a25.88,25.88,0,0,1,4.51-2.35,46.46,46.46,0,0,1,11.78-3.12,42.6,42.6,0,0,1,5.56-.4c6.24,0,10.77,1.31,13.48,3.89a13,13,0,0,1,4,9.91,19,19,0,0,1-.86,5.49,29,29,0,0,1-3.28,6.7,98.41,98.41,0,0,1-7,9.49c-3,3.7-6.83,8.18-11.41,13.32l-26.46,30.11v3l2.76,9.46h59.38l2.45-13.46,0-6.38-4.14,1.51A34.29,34.29,0,0,1,1493.31,571.42Z"/><path class="cls-3" d="M1590.78,582.79a117.54,117.54,0,0,1-1.45-13.14c-.23-4.34-.35-8.82-.35-13.32V481.58h-7.76l-16.33,9.6-3.77,15.73h5.93l7.39-4.6v53.6c0,4.53-.12,9.08-.35,13.53a125.31,125.31,0,0,1-1.46,13.36l0,5h18.23v-4.51Z"/></g></svg>