<?xml version="1.0" encoding="UTF-8" standalone="no"?>
<!-- Created with Inkscape (http://www.inkscape.org/) -->

<svg
   xmlns:dc="http://purl.org/dc/elements/1.1/"
   xmlns:cc="http://creativecommons.org/ns#"
   xmlns:rdf="http://www.w3.org/1999/02/22-rdf-syntax-ns#"
   xmlns:svg="http://www.w3.org/2000/svg"
   xmlns="http://www.w3.org/2000/svg"
   xmlns:sodipodi="http://sodipodi.sourceforge.net/DTD/sodipodi-0.dtd"
   xmlns:inkscape="http://www.inkscape.org/namespaces/inkscape"
   width="52.481758mm"
   height="52.97353mm"
   viewBox="0 0 185.95899 187.70148"
   id="svg9686"
   version="1.1"
   inkscape:version="0.91 r13725"
   sodipodi:docname="wizard-y.svg">
  <defs
     id="defs9688" />
  <sodipodi:namedview
     id="base"
     pagecolor="#ffffff"
     bordercolor="#666666"
     borderopacity="1.0"
     inkscape:pageopacity="0.0"
     inkscape:pageshadow="2"
     inkscape:zoom="2.0083984"
     inkscape:cx="107.26873"
     inkscape:cy="-119.68481"
     inkscape:document-units="px"
     inkscape:current-layer="layer1"
     showgrid="false"
     fit-margin-top="0"
     fit-margin-left="0"
     fit-margin-right="0"
     fit-margin-bottom="0"
     inkscape:window-width="3200"
     inkscape:window-height="1671"
     inkscape:window-x="0"
     inkscape:window-y="55"
     inkscape:window-maximized="1" />
  <metadata
     id="metadata9691">
    <rdf:RDF>
      <cc:Work
         rdf:about="">
        <dc:format>image/svg+xml</dc:format>
        <dc:type
           rdf:resource="http://purl.org/dc/dcmitype/StillImage" />
        <dc:title></dc:title>
      </cc:Work>
    </rdf:RDF>
  </metadata>
  <g
     inkscape:label="Capa 1"
     inkscape:groupmode="layer"
     id="layer1"
     transform="translate(-54.128233,-125.39408)">
    <path
       inkscape:connector-curvature="0"
       style="fill:#f4bc00"
       d="m 163.70672,202.08419 c 0,0 55.875,-12.792 75.166,20.99999 5.834,7.666 -10.5,44.998 -24.5,50.166 -3,11 -18.162,42.035 -28.5,39.167 0,0 -8.986,-1.313 -9.166,-36 0,0 6.129,47.452 14.834,22 11.273,-32.964 9.297,-85.429 -7.5,-91.667 0,0 5.666,-3 16.832,0 0,0 17.502,12.334 15.168,58.334 0,0 7.438,-29.292 -8.396,-57.292 0,0 7.229,0.792 13.063,3.625 -0.001,0 -16.667,-15.16699 -57.001,-9.33299 z"
       id="path7160" />
    <path
       inkscape:connector-curvature="0"
       style="fill:#f4bc00"
       d="m 130.50872,202.57519 c 0,0 -55.874992,-12.792 -75.165992,20.99999 -5.833998,7.666 10.5,45 24.5,50.166 3,11 18.162,42.037 28.500002,39.168 0,0 8.987,-1.313 9.166,-36 0,0 -6.129,47.453 -14.834,22 -11.273002,-32.963 -9.297002,-85.43 7.5,-91.667 0,0 -5.666,-3 -16.832002,0 0,0 -17.502,12.334 -15.168,58.333 0,0 -7.438,-29.291 8.396,-57.292 0,0 -7.229,0.792 -13.063,3.625 0.001,0 16.667,-15.16699 57.000992,-9.33299 z"
       id="path7162" />
    <path
       inkscape:connector-curvature="0"
       style="fill:#f4bc00"
       d="m 162.65172,174.93019 c 0.646,6.076 5.848,9.273 5.848,9.273 -5.15,9.72 -20.813,10.83 -20.813,10.83 0,0 -15.296,-1.207 -20.646,-10.818 0,0 5.133,-3.304 5.652,-9.393 0,0 -31.51999,-1.756 -57.586992,28.057 0,0 27.267002,-12.266 72.760992,-0.754 45.248,-12.452 72.941,-0.338 72.941,-0.338 -26.68,-29.267 -58.156,-26.857 -58.156,-26.857 z"
       id="path7419" />
    <path
       inkscape:connector-curvature="0"
       style="fill:#f4bc00"
       d="m 134.95672,173.04219 c 0,0 1.749,-23.417 11.417,-45.833 0,0 1.666,-4.084 3.166,0 1.5,4.082 8.502,24.334 11.418,45.833 -0.001,0 -12.741,5.99 -26.001,0 z"
       id="path7779" />
    <path
       inkscape:connector-curvature="0"
       style="fill:#f4bc00"
       d="m 146.41972,216.58418 c -1.659,-17.94999 -22.167,-7.586 -25.896,-6.959 -7.50099,1.26 -10.52099,0.625 -10.52099,0.625 -3.167,3.5 -4.416,6.334 -4.416,6.334 0,0 33.29099,-4.854 40.83299,0 z"
       id="path8703" />
    <path
       inkscape:connector-curvature="0"
       style="fill:#f4bc00"
       d="m 148.50872,216.58418 c 1.66,-17.94999 22.169,-7.586 25.896,-6.959 7.5,1.26 10.521,0.625 10.521,0.625 3.166,3.5 4.416,6.334 4.416,6.334 0,0 -33.289,-4.854 -40.833,0 z"
       id="path8705" />
    <path
       inkscape:connector-curvature="0"
       style="fill:#f4bc00"
       d="m 154.95172,216.58418 c 0,0 -2.041,1.651 -7.448,1.688 -5.407,-0.036 -7.448,-1.688 -7.448,-1.688 -18.667,-1.524 -38.30199,1.609 -38.30199,1.609 l 9.968,53.874 c 8.25,5 27.74999,5.996 27.74999,5.996 2.36,3.2 13.704,3.2 16.064,0 0,0 19.5,-0.996 27.75,-5.996 l 8.968,-53.874 c -10e-4,10e-4 -18.635,-3.133 -37.302,-1.609 z m -43.15699,25.424 19.11699,-21.063 0.733,10.834 -3.924,0.041 -0.028,-1.803 -11.00599,12.52 11.85699,15.55 -0.303,-13.94 -4.061,-0.281 0.076,-3.711 7.477,0.467 0.717,29.849 -20.65499,-28.463 z m 50.04899,28.461 0.717,-29.85 7.477,-0.465 0.076,3.711 -4.061,0.28 -0.304,13.94 11.856,-15.549 -11.006,-12.521 -0.027,1.804 -3.924,-0.041 0.732,-10.835 19.117,21.063 -20.653,28.463 z"
       id="path9584" />
  </g>
</svg>
